<svg xmlns="http://www.w3.org/2000/svg" viewBox="0 0 400 400" width="400" height="400">
  <rect width="400" height="400" fill="#e8f0e3"/>
  <rect x="0" y="0" width="400" height="400" fill="none" stroke="#c9d9c2" stroke-width="2"/>
  <g transform="translate(200,180)">
    <ellipse cx="0" cy="60" rx="70" ry="16" fill="#4a7c59" opacity="0.25"/>
    <path d="M-55 40 C-55 -10 -30 -50 0 -50 C30 -50 55 -10 55 40 C55 60 30 70 0 70 C-30 70 -55 60 -55 40 Z" fill="#4a7c59"/>
    <path d="M55 10 C80 0 95 -15 95 -15 C95 -15 90 5 70 20 Z" fill="#4a7c59"/>
    <rect x="-6" y="-70" width="12" height="24" rx="4" fill="#8b5e34"/>
  </g>
  <text x="200" y="330" font-family="Georgia, serif" font-size="18" fill="#4a7c59" text-anchor="middle">CHAIPONJP</text>
</svg>
